<svg xmlns="http://www.w3.org/2000/svg" viewBox="0 0 500 150" width="500" height="150">
  <path d="M36.5,83.4c0,0,15.5-13.4,22.8-20.8s7.8-11.5,10.9-14.1c3.1-2.6,13.5-4.7,13.5-4.7s1.3,6.2-2.1,12.5
    c-3.4,6.2-18.8,20.8-21.4,27.1c-2.6,6.2,1,7.3,7.3,7.3s13.5-6.2,21.4-13c7.8-6.8,15.6-14.6,21.4-14.6s11.5,7.3,14.1,13
    c2.6,5.7,0,12-3.1,14.6c-3.1,2.6-9.9,5.7-4.7,6.2s20.3-10.4,27.1-12c6.8-1.6,18.3,0,23.5,2.1s5.7,9.9,1,14.1
    c-4.7,4.2-15.1,9.4-8.9,10.4c6.2,1,42.7-12,52.1-17.2s16.7-13,23.5-8.9c6.8,4.2,6.2,12,3.1,16.7c-3.1,4.7-10.4,9.9-4.7,11.5
    c5.7,1.6,24-3.1,29.2-5.2c5.2-2.1,27.1-11.5,35.5-12s10.9,8.9,8.3,13c-2.6,4.2-9.9,11.5-7.3,12.5c2.6,1,17.2-4.2,24.5-8.3
    c7.3-4.2,13-9.9,18.2-10.4c5.2-0.5,9.9,5.2,11.5,12c1.6,6.8-3.1,14.1-3.1,14.1s12-8.9,16.7-14.1c4.7-5.2,10.9-17.7,17.2-17.2
    c6.2,0.5,8.3,7.3,7.8,14.1c-0.5,6.8-7.3,15.1-5.2,15.6c2.1,0.5,16.2-7.3,21.9-11.5c5.7-4.2,12-7.8,14.6-7.8s5.2,3.1,3.1,5.7
    s-6.2,5.2-12,10.9c-5.7,5.7-14.6,10.9-14.6,10.9"
    fill="none" stroke="#064e3b" stroke-width="2.5"/>
</svg> 