<svg width="100" height="100" viewBox="0 0 100 100" xmlns="http://www.w3.org/2000/svg">
  <defs>
    <pattern id="geometric" x="0" y="0" width="40" height="40" patternUnits="userSpaceOnUse">
      <!-- Base shapes -->
      <rect x="0" y="0" width="40" height="40" fill="#f8fafc" />
      
      <!-- Geometric elements -->
      <path d="M0,0 L20,0 L20,20 L0,20 Z" fill="none" stroke="#e2e8f0" stroke-width="0.5" />
      <path d="M20,0 L40,0 L40,20 L20,20 Z" fill="none" stroke="#e2e8f0" stroke-width="0.5" />
      <path d="M0,20 L20,20 L20,40 L0,40 Z" fill="none" stroke="#e2e8f0" stroke-width="0.5" />
      <path d="M20,20 L40,20 L40,40 L20,40 Z" fill="none" stroke="#e2e8f0" stroke-width="0.5" />
      
      <!-- Decorative star elements -->
      <path d="M20,20 l5,-15 l5,15 l15,-5 l-15,5 l5,15 l-5,-15 l-15,5 Z" fill="none" stroke="#cbd5e1" stroke-width="0.5" />
      <circle cx="20" cy="20" r="3" fill="none" stroke="#94a3b8" stroke-width="0.5" />
      
      <!-- Connection points -->
      <circle cx="0" cy="0" r="1" fill="#e2e8f0" />
      <circle cx="40" cy="0" r="1" fill="#e2e8f0" />
      <circle cx="0" cy="40" r="1" fill="#e2e8f0" />
      <circle cx="40" cy="40" r="1" fill="#e2e8f0" />
      <circle cx="20" cy="20" r="1" fill="#94a3b8" />
    </pattern>
  </defs>
  <rect x="0" y="0" width="100" height="100" fill="url(#geometric)" />
</svg> 