<svg xmlns="http://www.w3.org/2000/svg" width="100" height="100" viewBox="0 0 100 100">
  <pattern id="pattern" x="0" y="0" width="50" height="50" patternUnits="userSpaceOnUse" patternTransform="rotate(45)">
    <rect x="0" y="0" width="50" height="50" fill="none"/>
    <path d="M0,0 L25,0 L25,25 L0,25 Z" stroke="#000" stroke-width="0.5" fill="none"/>
    <circle cx="25" cy="25" r="5" stroke="#000" stroke-width="0.5" fill="none"/>
    <path d="M25,0 L50,0 L50,25 L25,25 Z" stroke="#000" stroke-width="0.5" fill="none"/>
    <circle cx="25" cy="0" r="5" stroke="#000" stroke-width="0.5" fill="none"/>
    <path d="M0,25 L25,25 L25,50 L0,50 Z" stroke="#000" stroke-width="0.5" fill="none"/>
    <circle cx="0" cy="25" r="5" stroke="#000" stroke-width="0.5" fill="none"/>
    <path d="M25,25 L50,25 L50,50 L25,50 Z" stroke="#000" stroke-width="0.5" fill="none"/>
    <path d="M25,25 l5,5 l-5,5 l-5,-5 Z" stroke="#000" stroke-width="0.5" fill="none"/>
  </pattern>
  <rect x="0" y="0" width="100%" height="100%" fill="url(#pattern)"/>
</svg> 