<svg width="150" height="150" viewBox="0 0 150 150" xmlns="http://www.w3.org/2000/svg">
  <defs>
    <pattern id="stars-pattern" x="0" y="0" width="50" height="50" patternUnits="userSpaceOnUse">
      <!-- 8-point star -->
      <path fill="none" stroke="#3da13d" stroke-width="0.5" d="M25,5 L28,18 L40,15 L30,25 L40,35 L28,32 L25,45 L22,32 L10,35 L20,25 L10,15 L22,18 Z" />
      
      <!-- Small stars in corners -->
      <path fill="none" stroke="#3da13d" stroke-width="0.25" d="M10,5 L11,8 L14,9 L11,10 L10,13 L9,10 L6,9 L9,8 Z" />
      <path fill="none" stroke="#3da13d" stroke-width="0.25" d="M40,5 L41,8 L44,9 L41,10 L40,13 L39,10 L36,9 L39,8 Z" />
      <path fill="none" stroke="#3da13d" stroke-width="0.25" d="M10,45 L11,42 L14,41 L11,40 L10,37 L9,40 L6,41 L9,42 Z" />
      <path fill="none" stroke="#3da13d" stroke-width="0.25" d="M40,45 L41,42 L44,41 L41,40 L40,37 L39,40 L36,41 L39,42 Z" />
    </pattern>
  </defs>
  <rect x="0" y="0" width="150" height="150" fill="url(#stars-pattern)" />
</svg> 